<svg width="271" height="49" viewBox="0 0 271 49" fill="none" xmlns="http://www.w3.org/2000/svg">
<path d="M0 0H48.0686V48.0686H0V0Z" fill="#017ACB"/>
<path d="M7.917 42H11.535V35.115C11.535 33.873 11.4 31.902 11.4 31.902C11.4 31.902 12.507 33.522 13.371 34.494L17.016 38.571H17.367L21.012 34.494C21.876 33.522 22.983 31.902 22.983 31.902C22.983 31.902 22.848 33.873 22.848 35.115V42H26.493V23.451H26.169L17.259 33.387L8.214 23.451H7.917V42Z" fill="white"/>
<path d="M37.3491 42.162H37.7271L45.7731 23.64H42.1011L39.0231 30.714C38.3211 32.307 37.6191 34.872 37.6191 34.872C37.6191 34.872 36.8901 32.28 36.1881 30.714L33.0291 23.64H28.9791L37.3491 42.162Z" fill="white"/>
<path d="M62.371 41.162H62.749L67.042 32.306C67.528 31.28 68.095 29.579 68.095 29.579C68.095 29.579 68.635 31.28 69.121 32.306L73.252 41.162H73.63L80.299 22.64H76.627L73.981 30.011C73.522 31.28 73.009 33.332 73.009 33.332C73.009 33.332 72.469 31.253 71.875 30.011L68.284 22.478H67.906L64.369 30.011C63.775 31.253 63.235 33.332 63.235 33.332C63.235 33.332 62.722 31.28 62.263 30.011L59.59 22.64H55.594L62.371 41.162Z" fill="white"/>
<path d="M82.7832 41H95.3112V37.679H86.5632V35.033H93.9342V31.793H86.5632V25.961H94.9332V22.64H82.7832V41Z" fill="white"/>
<path d="M98.8145 41H106.239C110.073 41 112.395 38.597 112.395 35.33C112.395 33.035 111.18 31.361 108.669 30.767C110.262 30.254 111.261 29.093 111.261 27.392C111.261 24.8 109.344 22.64 105.915 22.64H98.8145V41ZM102.594 29.417V25.961H105.699C106.86 25.961 107.535 26.636 107.535 27.689C107.535 28.742 106.725 29.417 105.51 29.417H102.594ZM102.594 37.679V32.63H105.861C107.589 32.63 108.588 33.656 108.588 35.141C108.588 36.653 107.616 37.679 106.077 37.679H102.594Z" fill="white"/>
<path d="M121.253 41H126.896C132.566 41 136.562 37.247 136.562 31.82C136.562 26.393 132.539 22.64 126.896 22.64H121.253V41ZM125.033 37.679V25.961H126.707C130.784 25.961 132.647 28.391 132.647 31.82C132.647 35.249 130.784 37.679 126.707 37.679H125.033Z" fill="white"/>
<path d="M139.736 41H152.264V37.679H143.516V35.033H150.887V31.793H143.516V25.961H151.886V22.64H139.736V41Z" fill="white"/>
<path d="M162.392 41.162H162.77L170.816 22.64H167.144L164.066 29.714C163.364 31.307 162.662 33.872 162.662 33.872C162.662 33.872 161.933 31.28 161.231 29.714L158.072 22.64H154.022L162.392 41.162Z" fill="white"/>
<path d="M173.302 41H185.83V37.679H177.082V35.033H184.453V31.793H177.082V25.961H185.452V22.64H173.302V41Z" fill="white"/>
<path d="M189.333 41H201.429V37.679H193.113V22.64H189.333V41Z" fill="white"/>
<path d="M212.27 41.243C217.562 41.243 221.774 37.247 221.774 31.82C221.774 26.393 217.562 22.397 212.27 22.397C206.978 22.397 202.766 26.393 202.766 31.82C202.766 37.247 206.978 41.243 212.27 41.243ZM212.27 37.868C208.922 37.868 206.654 35.249 206.654 31.82C206.654 28.391 208.922 25.772 212.27 25.772C215.618 25.772 217.886 28.391 217.886 31.82C217.886 35.249 215.618 37.868 212.27 37.868Z" fill="white"/>
<path d="M224.981 41H228.761V36.815H230.057C235.16 36.815 238.265 34.169 238.265 29.741C238.265 25.313 235.187 22.64 230.057 22.64H224.981V41ZM228.761 33.494V25.961H229.949C232.973 25.961 234.377 27.203 234.377 29.741C234.377 32.252 233.027 33.494 229.949 33.494H228.761Z" fill="white"/>
<path d="M241.197 41H253.725V37.679H244.977V35.033H252.348V31.793H244.977V25.961H253.347V22.64H241.197V41Z" fill="white"/>
<path d="M266.976 35.276C269.244 34.25 270.513 32.441 270.513 29.579C270.513 25.097 267.435 22.64 262.305 22.64H257.229V41H261.009V36.437H262.305C262.656 36.437 263.034 36.41 263.385 36.356L266.409 41H270.783L266.976 35.276ZM261.009 33.143V25.961H262.197C265.221 25.961 266.625 26.987 266.625 29.579C266.625 32.171 265.275 33.143 262.197 33.143H261.009Z" fill="white"/>
</svg>
