<svg width="590" height="426" viewBox="0 0 590 426" fill="none" xmlns="http://www.w3.org/2000/svg">
<path d="M560.881 171.537C560.886 165.779 576.24 162.781 582.327 167.094C588.413 171.407 589.352 182.02 589.471 190.036C589.589 198.051 582.112 204.522 576.2 210.279C574.335 216.102 578.539 232.919 556.395 223.249L555.369 190.588L560.881 171.537Z" fill="#FCBEBE"/>
<path d="M560.881 171.537C560.886 165.779 576.24 162.781 582.327 167.094C588.413 171.407 589.352 182.02 589.471 190.036C589.589 198.051 582.112 204.522 576.2 210.279C574.335 216.102 578.539 232.919 556.395 223.249L555.369 190.588L560.881 171.537Z" fill="#FCBEBE"/>
<path d="M560.881 171.537C560.886 165.779 576.24 162.781 582.327 167.094C588.413 171.407 589.352 182.02 589.471 190.036C589.589 198.051 582.112 204.522 576.2 210.279C574.335 216.102 578.539 232.919 556.395 223.249L555.369 190.588L560.881 171.537Z" fill="#FCBEBE"/>
<path d="M298.221 171.519C298.216 165.762 282.862 162.763 276.775 167.077C270.689 171.39 269.75 182.002 269.632 190.018C269.513 198.033 276.991 204.504 282.903 210.261C284.767 216.084 280.563 232.901 302.707 223.231L303.733 190.57L298.221 171.519Z" fill="#FCBEBE"/>
<rect x="370.005" y="319.528" width="116.039" height="100.903" fill="#FCBEBE"/>
<g filter="url(#filter0_d_15_597)">
<path d="M298.434 84.1799C300.108 79.9777 559.192 84.7469 561.296 83.3388C562.435 82.5764 562.287 170.078 561.911 250.501C561.572 323.127 502.528 381.692 429.901 381.692C357.176 381.692 298.094 322.967 297.858 250.243C297.603 171.61 297.537 86.4305 298.434 84.1799Z" fill="#FCBEBE"/>
</g>
<path d="M417.741 241.634H409L424.298 187" stroke="#1E1E1E" stroke-opacity="0.3" stroke-width="2.18537" stroke-linecap="round"/>
<circle cx="448.504" cy="324.08" r="5.78714" fill="#1E1E1E" fill-opacity="0.6"/>
<path d="M292.647 102.585C292.647 75.3779 307.353 49.285 333.53 30.0465C359.707 10.8081 395.21 4.27467e-05 432.23 4.27467e-05C469.25 4.27467e-05 504.753 10.8081 530.93 30.0465C557.107 49.285 571.813 75.3779 571.813 102.585L432.23 102.585L292.647 102.585Z" fill="#5D4835"/>
<path d="M292.647 150.515V102.585H322.077H537.338H571.813C570.131 124.728 567.609 166.491 563.404 169.014C556.915 172.907 544.905 124.728 537.338 102.585H322.077C316.191 125.569 303.242 171.032 298.533 169.014C293.824 166.995 292.647 155.84 292.647 150.515Z" fill="#5D4835"/>
<circle cx="360.373" cy="192.546" r="7.35754" fill="#1E1E1E"/>
<circle cx="473.222" cy="192.546" r="7.35754" fill="#1E1E1E"/>
<circle cx="425.502" cy="240.487" r="1.68172" fill="#1E1E1E" fill-opacity="0.8"/>
<circle cx="432.229" cy="240.487" r="1.68172" fill="#1E1E1E" fill-opacity="0.8"/>
<path d="M385.686 173.184C370.97 155.527 344.483 161.413 335.654 173.184" stroke="#5D4835" stroke-width="8.82905" stroke-linecap="round"/>
<path d="M498.535 173.184C483.82 155.527 457.333 161.413 448.503 173.184" stroke="#5D4835" stroke-width="8.82905" stroke-linecap="round"/>
<path d="M566.767 218.625H570.131V227.034C570.131 227.963 569.378 228.716 568.449 228.716C567.52 228.716 566.767 227.963 566.767 227.034V218.625Z" fill="#BCBCBC"/>
<path d="M292.335 218.607H288.971V227.016C288.971 227.945 289.724 228.698 290.653 228.698C291.582 228.698 292.335 227.945 292.335 227.016V218.607Z" fill="#BCBCBC"/>
<g filter="url(#filter1_d_15_597)">
<path d="M355.909 399.313H57.4806L1.20468 185.029C-2.97189 169.133 4.06101 156.253 16.8954 156.253H268.823C281.67 156.253 295.482 169.133 299.633 185.029L355.909 399.313Z" fill="#242424"/>
</g>
<path d="M543.422 399.313H346.717C347.283 402.302 347.427 405.477 347.139 408.58C346.851 411.683 346.138 414.624 345.059 417.165C343.98 419.705 342.565 421.771 340.931 423.195C339.296 424.618 337.488 425.359 335.654 425.355H532.359C534.193 425.362 536.002 424.624 537.638 423.201C539.274 421.778 540.689 419.712 541.769 417.171C542.848 414.63 543.561 411.686 543.848 408.582C544.135 405.478 543.989 402.302 543.422 399.313Z" fill="#242424"/>
<path d="M354.608 399.313H57.8714L61.3323 407.274C63.6199 412.529 68.0796 417.108 74.0719 420.356C80.0643 423.604 87.2817 425.354 94.6898 425.355H329.326C333.527 425.342 337.666 424.591 341.404 423.16C345.142 421.73 348.375 419.661 350.838 417.123C353.302 414.586 354.928 411.65 355.583 408.555C356.238 405.46 355.904 402.293 354.608 399.313Z" fill="#393939"/>
<path d="M335.618 397.969H80.405L27.143 196.539H282.356L335.618 397.969Z" fill="#242424"/>
<defs>
<filter id="filter0_d_15_597" x="290.965" y="82.4054" width="277.948" height="312.74" filterUnits="userSpaceOnUse" color-interpolation-filters="sRGB">
<feFlood flood-opacity="0" result="BackgroundImageFix"/>
<feColorMatrix in="SourceAlpha" type="matrix" values="0 0 0 0 0 0 0 0 0 0 0 0 0 0 0 0 0 0 127 0" result="hardAlpha"/>
<feOffset dy="6.72689"/>
<feGaussianBlur stdDeviation="3.36345"/>
<feComposite in2="hardAlpha" operator="out"/>
<feColorMatrix type="matrix" values="0 0 0 0 0 0 0 0 0 0 0 0 0 0 0 0 0 0 0.25 0"/>
<feBlend mode="normal" in2="BackgroundImageFix" result="effect1_dropShadow_15_597"/>
<feBlend mode="normal" in="SourceGraphic" in2="effect1_dropShadow_15_597" result="shape"/>
</filter>
<filter id="filter1_d_15_597" x="0" y="131.253" width="480.909" height="293.06" filterUnits="userSpaceOnUse" color-interpolation-filters="sRGB">
<feFlood flood-opacity="0" result="BackgroundImageFix"/>
<feColorMatrix in="SourceAlpha" type="matrix" values="0 0 0 0 0 0 0 0 0 0 0 0 0 0 0 0 0 0 127 0" result="hardAlpha"/>
<feOffset dx="100"/>
<feGaussianBlur stdDeviation="12.5"/>
<feComposite in2="hardAlpha" operator="out"/>
<feColorMatrix type="matrix" values="0 0 0 0 0 0 0 0 0 0.847059 0 0 0 0 1 0 0 0 0.1 0"/>
<feBlend mode="normal" in2="BackgroundImageFix" result="effect1_dropShadow_15_597"/>
<feBlend mode="normal" in="SourceGraphic" in2="effect1_dropShadow_15_597" result="shape"/>
</filter>
</defs>
</svg>
