<svg width="536" height="265" viewBox="0 0 536 265" fill="none" xmlns="http://www.w3.org/2000/svg">
<path d="M349.865 237.579H56.5045L1.18423 28.1275C-2.92143 12.5898 3.99205 0 16.6085 0H264.258C276.887 0 290.464 12.5898 294.545 28.1275L349.865 237.579Z" fill="#242424"/>
<path d="M534.632 237.579H246.175C247.005 240.726 247.217 244.07 246.794 247.337C246.371 250.604 245.326 253.701 243.744 256.376C242.161 259.051 240.087 261.226 237.69 262.725C235.293 264.224 232.641 265.004 229.952 265H518.409C521.099 265.007 523.752 264.23 526.15 262.732C528.549 261.234 530.624 259.058 532.207 256.382C533.79 253.707 534.835 250.608 535.257 247.339C535.678 244.071 535.464 240.726 534.632 237.579Z" fill="#242424"/>
<path d="M246.176 237.579H56.792L59.0008 245.962C60.4608 251.494 63.3071 256.316 67.1315 259.736C70.956 263.156 75.5624 264.999 80.2903 265H230.041C232.722 264.987 235.363 264.195 237.749 262.689C240.135 261.183 242.198 259.005 243.77 256.333C245.343 253.66 246.38 250.569 246.798 247.31C247.216 244.051 247.003 240.717 246.176 237.579Z" fill="#393939"/>
<path d="M329.873 237.579H79.0289L26.6787 39.5965H277.523L329.873 237.579Z" fill="#1F2937"/>
<path d="M57.9277 234.539H347.445" stroke="#242424" stroke-width="8.49918" stroke-miterlimit="10" stroke-linecap="round"/>
<path d="M62.4402 105.656H103.554V146.769H62.4402V105.656Z" fill="#017ACB"/>
<path d="M69.2117 141.579H72.3062V135.69C72.3062 134.627 72.1907 132.942 72.1907 132.942C72.1907 132.942 73.1375 134.327 73.8765 135.159L76.9941 138.646H77.2943L80.4119 135.159C81.1509 134.327 82.0977 132.942 82.0977 132.942C82.0977 132.942 81.9823 134.627 81.9823 135.69V141.579H85.0999V125.713H84.8228L77.202 134.212L69.4657 125.713H69.2117V141.579Z" fill="white"/>
<path d="M94.3852 141.717H94.7085L101.59 125.875H98.4496L95.817 131.926C95.2166 133.288 94.6161 135.482 94.6161 135.482C94.6161 135.482 93.9926 133.265 93.3922 131.926L90.6903 125.875H87.2263L94.3852 141.717Z" fill="white"/>
<path d="M115.787 140.862H116.11L119.782 133.287C120.197 132.41 120.682 130.955 120.682 130.955C120.682 130.955 121.144 132.41 121.56 133.287L125.093 140.862H125.417L131.121 125.02H127.98L125.717 131.324C125.324 132.41 124.885 134.165 124.885 134.165C124.885 134.165 124.424 132.387 123.915 131.324L120.844 124.881H120.521L117.496 131.324C116.987 132.387 116.526 134.165 116.526 134.165C116.526 134.165 116.087 132.41 115.694 131.324L113.408 125.02H109.99L115.787 140.862Z" fill="white"/>
<path d="M133.245 140.723H143.961V137.883H136.478V135.62H142.783V132.848H136.478V127.86H143.637V125.02H133.245V140.723Z" fill="white"/>
<path d="M146.957 140.723H153.308C156.587 140.723 158.573 138.668 158.573 135.874C158.573 133.911 157.534 132.479 155.386 131.971C156.749 131.532 157.603 130.539 157.603 129.084C157.603 126.867 155.963 125.02 153.031 125.02H146.957V140.723ZM150.19 130.816V127.86H152.846C153.839 127.86 154.416 128.438 154.416 129.338C154.416 130.239 153.723 130.816 152.684 130.816H150.19ZM150.19 137.883V133.564H152.984C154.462 133.564 155.317 134.442 155.317 135.712C155.317 137.005 154.485 137.883 153.169 137.883H150.19Z" fill="white"/>
<path d="M166.149 140.723H170.975C175.825 140.723 179.243 137.513 179.243 132.871C179.243 128.23 175.802 125.02 170.975 125.02H166.149V140.723ZM169.382 137.883V127.86H170.814C174.301 127.86 175.894 129.939 175.894 132.871C175.894 135.804 174.301 137.883 170.814 137.883H169.382Z" fill="white"/>
<path d="M181.958 140.723H192.673V137.883H185.191V135.62H191.495V132.848H185.191V127.86H192.35V125.02H181.958V140.723Z" fill="white"/>
<path d="M201.335 140.862H201.659L208.541 125.02H205.4L202.767 131.07C202.167 132.433 201.566 134.627 201.566 134.627C201.566 134.627 200.943 132.41 200.342 131.07L197.641 125.02H194.177L201.335 140.862Z" fill="white"/>
<path d="M210.667 140.723H221.382V137.883H213.9V135.62H220.204V132.848H213.9V127.86H221.059V125.02H210.667V140.723Z" fill="white"/>
<path d="M224.378 140.723H234.724V137.883H227.611V125.02H224.378V140.723Z" fill="white"/>
<path d="M243.996 140.931C248.523 140.931 252.125 137.513 252.125 132.871C252.125 128.23 248.523 124.812 243.996 124.812C239.47 124.812 235.867 128.23 235.867 132.871C235.867 137.513 239.47 140.931 243.996 140.931ZM243.996 138.044C241.133 138.044 239.193 135.804 239.193 132.871C239.193 129.939 241.133 127.699 243.996 127.699C246.86 127.699 248.8 129.939 248.8 132.871C248.8 135.804 246.86 138.044 243.996 138.044Z" fill="white"/>
<path d="M254.869 140.723H258.102V137.144H259.21C263.575 137.144 266.231 134.881 266.231 131.093C266.231 127.306 263.598 125.02 259.21 125.02H254.869V140.723ZM258.102 134.303V127.86H259.118C261.704 127.86 262.905 128.923 262.905 131.093C262.905 133.241 261.751 134.303 259.118 134.303H258.102Z" fill="white"/>
<path d="M268.738 140.723H279.454V137.883H271.971V135.62H278.276V132.848H271.971V127.86H279.13V125.02H268.738V140.723Z" fill="white"/>
<path d="M290.787 135.827C292.726 134.95 293.812 133.403 293.812 130.955C293.812 127.121 291.179 125.02 286.791 125.02H282.45V140.723H285.683V136.82H286.791C287.092 136.82 287.415 136.797 287.715 136.751L290.302 140.723H294.043L290.787 135.827ZM285.683 134.003V127.86H286.699C289.286 127.86 290.486 128.738 290.486 130.955C290.486 133.172 289.332 134.003 286.699 134.003H285.683Z" fill="white"/>
</svg>
